<svg width="115" height="40" viewBox="0 0 115 40" fill="none" xmlns="http://www.w3.org/2000/svg">
<g clip-path="url(#clip0_13045_6868)">
<path d="M40.2969 20.3453H37.3419V26.5161H35.1265V9.60156H40.2969C43.8231 9.60156 46.1112 11.9359 46.1112 14.9866C46.1112 18.0374 43.8231 20.3486 40.2969 20.3486M40.2969 11.675H37.3419V18.2982H40.2969C42.6312 18.2982 43.9189 16.8686 43.9189 14.9866C43.9189 13.1047 42.6312 11.675 40.2969 11.675Z" fill="#A51D21"/>
<path d="M47.4912 20.5597C47.4912 17.1524 49.9939 14.3657 53.3286 14.3657C55.1379 14.3657 56.7359 15.2935 57.5218 16.4392V14.6034H59.5721V26.516H57.5218V24.6802C56.7359 25.8226 55.1379 26.7537 53.3286 26.7537C49.9939 26.7537 47.4912 23.967 47.4912 20.5597ZM57.6868 20.5597C57.6868 18.1528 56.0195 16.2477 53.6357 16.2477C51.2518 16.2477 49.5614 18.1528 49.5614 20.5597C49.5614 22.9666 51.2287 24.8717 53.6357 24.8717C56.0426 24.8717 57.6868 22.9666 57.6868 20.5597Z" fill="#A51D21"/>
<path d="M64.31 31.495L66.9052 25.8953L61.6885 14.6035H63.9534L68.0508 23.6568L72.1251 14.6035H74.4099L66.5981 31.495H64.31Z" fill="#A51D21"/>
<path d="M77.4604 16.4854H74.9346V14.6035H77.4604V12.1965C77.4604 9.71698 79.0089 8.50195 81.1054 8.50195C81.845 8.50195 82.4162 8.62081 82.9643 8.81231V10.6216C82.5813 10.4533 81.9639 10.3839 81.4884 10.3839C80.1545 10.3839 79.5107 10.8825 79.5107 12.4079V14.6002H82.9643V16.4821H79.5107V26.5127H77.4637V16.4821L77.4604 16.4854ZM84.7736 9.958C84.7736 9.1722 85.4174 8.50525 86.2495 8.50525C87.0815 8.50525 87.6791 9.1722 87.6791 9.958C87.6791 10.79 87.0848 11.4107 86.2495 11.4107C85.4141 11.4107 84.7736 10.79 84.7736 9.958ZM85.2028 14.6035H87.2532V26.516H85.2028V14.6035Z" fill="#ffffff"/>
<path d="M95.4946 22.0125L91.8726 26.516H89.3237L94.2069 20.4871L89.7298 14.6035H92.2061L95.4946 18.9155L98.7567 14.6035H101.259L96.7558 20.4871L101.642 26.516H99.1165L95.4946 22.0125Z" fill="#ffffff"/>
<path d="M104.617 31.495L107.216 25.8953L101.999 14.6035H104.261L108.358 23.6568L112.432 14.6035H114.72L106.905 31.495H104.617Z" fill="#ffffff"/>
<path d="M8.36593 25.5452H8.3032C7.33251 25.5452 6.5467 24.7594 6.5467 23.7887C6.5401 23.6005 6.5401 22.6859 6.97592 21.6987C7.40514 20.7247 8.14142 19.9818 9.10221 19.5493C9.78236 19.2423 10.5781 19.0871 11.4695 19.0871H18.3899C20.9817 19.0871 23.1707 16.9674 23.1278 14.3723C23.0849 11.8531 21.0246 9.81923 18.4955 9.81923H1.00977C1.00977 8.81552 1.82198 8 2.829 8H18.3734C21.8996 8 24.8645 10.7767 24.947 14.2996C25.0329 17.9282 22.1043 20.9096 18.4955 20.9096H11.4695C10.8356 20.9096 10.2908 21.012 9.84839 21.2101C9.29701 21.4577 8.8909 21.8704 8.63998 22.4317C8.34943 23.0887 8.36593 23.726 8.36593 23.7326V23.7689V25.5419V25.5452Z" fill="#ffffff"/>
<path d="M17.2509 13.5435H14.8242C14.7978 13.5435 14.7747 13.5435 14.7615 13.5435H7.45481C3.90549 13.5435 1.01651 16.4258 1 19.9685C1 19.9785 1 19.9884 1 19.9983V20.1105V25.5385C1 29.1043 3.89558 31.9999 7.45481 31.9999H7.57367C10.7169 31.9405 13.3813 29.6029 13.8403 26.4927L13.8601 25.6442V25.5088C13.8469 25.0168 13.4408 24.6272 12.9488 24.6272H12.9389C12.4404 24.6272 12.0409 25.0333 12.0409 25.5319V26.2021C11.7173 28.4704 9.75609 30.1774 7.45481 30.1774H7.41519C4.87619 30.1576 2.81923 28.0874 2.81923 25.5451V19.9454C2.84895 17.4163 4.91581 15.366 7.45151 15.366H14.8077H14.811H17.2476V15.3528C17.6141 15.3132 17.9443 15.1613 18.2117 14.9368C18.6112 14.6033 18.8655 14.1047 18.8655 13.5435H17.2476H17.2509Z" fill="#A51D21"/>
</g>
<defs>
<clipPath id="clip0_13045_6868">
<rect width="113.72" height="24" fill="white" transform="translate(1 8)"/>
</clipPath>
</defs>
</svg>
